<?xml version="1.0" standalone="no"?>
<!DOCTYPE svg PUBLIC "-//W3C//DTD SVG 20010904//EN"
 "http://www.w3.org/TR/2001/REC-SVG-20010904/DTD/svg10.dtd">
<svg version="1.0" xmlns="http://www.w3.org/2000/svg"
 width="410.000000pt" height="410.000000pt" viewBox="0 0 410.000000 410.000000"
 preserveAspectRatio="xMidYMid meet">
<metadata>
Created by potrace 1.14, written by Peter Selinger 2001-2017
</metadata>
<g transform="translate(0.000000,410.000000) scale(0.100000,-0.100000)"
fill="#000000" stroke="none">
<path d="M748 3815 c-2 -1 -55 -5 -118 -9 -63 -3 -126 -8 -140 -10 -93 -16
-176 -30 -180 -31 -35 -9 -97 -28 -103 -32 -9 -5 59 -133 135 -258 27 -44 55
-89 61 -100 59 -98 282 -420 314 -453 7 -7 13 -16 13 -20 0 -4 17 -26 39 -49
l38 -42 69 25 c38 14 108 41 157 59 48 19 87 32 87 30 0 -1 -54 -42 -120 -90
-66 -48 -123 -92 -126 -96 -10 -16 96 -138 273 -315 l101 -101 89 24 c48 14
95 26 103 27 8 1 32 8 53 15 70 23 57 6 -35 -49 -51 -30 -97 -57 -102 -59 -6
-2 -16 -10 -23 -17 -13 -13 17 -42 127 -124 38 -28 212 -173 250 -207 27 -25
67 -26 177 -4 29 6 74 13 100 16 l48 6 -27 -23 c-15 -13 -46 -39 -69 -58 -89
-75 -84 -64 -44 -101 57 -53 121 -113 274 -259 79 -74 151 -141 161 -150 15
-13 44 -16 154 -15 75 0 136 -3 136 -7 0 -3 -38 -26 -86 -49 l-85 -44 53 -50
c30 -27 80 -72 112 -100 32 -27 64 -54 70 -60 60 -53 209 -152 278 -184 25
-12 71 -24 101 -26 50 -3 64 1 142 41 48 25 89 44 90 42 7 -7 114 -211 150
-284 46 -96 100 -220 127 -294 11 -30 25 -61 31 -67 19 -25 99 6 116 44 14 31
9 38 -17 24 -12 -6 -22 -11 -25 -11 -4 0 -30 58 -71 157 -36 87 -138 280 -178
336 -11 15 -16 27 -12 27 4 0 0 8 -8 18 -8 9 -43 64 -78 122 -36 58 -68 107
-72 108 -4 2 -8 10 -8 18 0 8 -4 14 -10 14 -5 0 -10 5 -10 10 0 19 -344 495
-394 546 -6 6 -27 30 -46 55 -42 52 -140 170 -155 185 -5 6 -39 44 -75 84
-112 127 -327 347 -426 439 -33 30 -91 84 -129 120 -39 36 -95 86 -124 111
-30 25 -66 57 -82 71 -15 15 -37 33 -48 41 -12 9 -38 31 -59 50 -20 18 -68 58
-107 88 -38 30 -75 59 -81 65 -6 5 -23 19 -38 30 -16 11 -56 42 -90 69 -75 59
-250 187 -278 203 -11 6 -23 15 -27 20 -3 5 -22 19 -42 31 -20 12 -43 30 -50
39 -8 9 7 3 33 -15 26 -18 51 -32 56 -32 6 0 12 -3 14 -7 2 -5 50 -39 108 -78
157 -104 527 -380 565 -421 6 -6 35 -30 65 -55 30 -24 66 -54 80 -66 14 -12
36 -31 50 -43 180 -152 633 -606 757 -759 15 -19 37 -44 48 -55 11 -12 36 -41
55 -66 35 -45 66 -83 85 -104 6 -6 26 -31 45 -56 47 -61 63 -80 78 -95 6 -8
12 -18 12 -23 0 -6 4 -12 8 -14 17 -6 273 -376 337 -485 11 -18 22 -33 25 -33
11 0 58 55 79 93 32 58 43 199 26 331 -9 69 -50 203 -91 294 -26 58 -30 63
-54 58 -14 -4 -39 -9 -57 -12 l-32 -6 25 72 c32 88 39 65 -116 383 -50 103
-95 187 -100 187 -5 0 -12 9 -15 20 -8 26 -21 25 -43 -2 -26 -32 -112 -129
-112 -126 0 2 5 19 11 38 5 19 12 42 14 50 2 8 13 42 24 74 12 33 21 62 21 67
0 6 -100 140 -124 165 -6 6 -36 40 -66 75 -76 88 -382 389 -390 384 -3 -2 -17
-26 -30 -52 -13 -26 -32 -59 -42 -72 -18 -23 -18 -21 -18 97 l0 120 -57 49
c-32 26 -60 51 -63 54 -13 15 -161 119 -169 119 -5 0 -11 4 -13 8 -12 28 -406
232 -449 232 -9 0 -19 3 -23 7 -8 9 -71 31 -118 42 l-38 9 -11 -42 c-16 -60
-48 -162 -49 -156 -5 18 -10 52 -16 100 -11 102 -13 113 -21 120 -10 8 -97 26
-173 36 -30 3 -64 8 -75 11 -11 2 -72 6 -135 9 -63 3 -123 7 -132 8 -9 2 -18
3 -20 1z"/>
</g>
</svg>
