<?xml version="1.0" standalone="no"?>
<!DOCTYPE svg PUBLIC "-//W3C//DTD SVG 20010904//EN"
 "http://www.w3.org/TR/2001/REC-SVG-20010904/DTD/svg10.dtd">
<svg version="1.0" xmlns="http://www.w3.org/2000/svg"
 width="320.000000pt" height="320.000000pt" viewBox="0 0 320.000000 320.000000"
 preserveAspectRatio="xMidYMid meet">
<metadata>
Created by potrace 1.14, written by Peter Selinger 2001-2017
</metadata>
<g transform="translate(0.000000,320.000000) scale(0.100000,-0.100000)"
fill="#000000" stroke="none">
<path d="M2415 2982 c-141 -9 -322 -98 -467 -231 -31 -29 -61 -50 -66 -49 -18
5 -104 -67 -151 -127 -26 -33 -64 -88 -85 -122 -20 -35 -39 -63 -41 -63 -7 0
8 75 16 78 5 2 9 9 9 15 0 36 -173 -187 -186 -240 -4 -13 -9 -23 -13 -23 -4 0
-18 -32 -31 -72 -18 -54 -25 -67 -30 -52 -4 10 -5 26 -2 34 17 49 -83 -109
-128 -202 -18 -37 -53 -88 -77 -114 -49 -54 -126 -201 -146 -282 -7 -29 -16
-50 -19 -47 -10 11 -46 -59 -69 -135 -16 -53 -22 -101 -23 -171 -1 -53 -4 -95
-7 -93 -4 2 -17 25 -29 51 -21 46 -28 110 -15 155 5 18 4 20 -4 8 -11 -16 -48
-120 -57 -161 -12 -55 -5 -234 11 -258 2 -4 6 -27 10 -51 l6 -45 -56 55 -57
55 31 -50 c43 -68 71 -148 71 -201 0 -39 -8 -58 -57 -130 -34 -49 -67 -87 -80
-90 -12 -3 -26 -18 -31 -32 -5 -15 -26 -47 -46 -70 -43 -52 -44 -67 -9 -104
32 -33 49 -35 58 -8 4 12 32 46 63 78 31 31 57 63 58 70 3 18 61 113 104 170
28 37 45 48 85 59 65 18 154 11 208 -17 l42 -21 -30 25 c-16 14 -49 33 -72 43
-24 10 -43 21 -43 25 0 23 198 20 226 -3 9 -8 14 -8 14 -1 0 6 -24 18 -52 28
-58 20 -60 20 -103 23 -26 1 -27 3 -12 12 9 6 25 12 35 14 9 2 51 14 92 25 41
12 80 23 86 24 7 1 45 18 86 39 50 24 95 57 136 98 66 67 87 103 25 46 -62
-60 -203 -117 -285 -117 -30 0 -17 11 77 61 127 67 168 95 224 149 56 54 55
60 -7 29 -94 -49 -111 -33 -25 24 110 74 187 150 253 248 33 50 60 95 60 101
0 5 -17 -7 -37 -27 -77 -77 -222 -157 -370 -206 -57 -18 -79 -21 -109 -13 -41
10 -59 34 -26 34 34 0 192 59 269 100 170 91 313 199 403 306 48 57 110 157
110 179 0 13 7 29 17 36 45 38 208 306 172 284 -8 -5 -38 -26 -68 -47 -51 -36
-81 -47 -81 -30 0 4 28 27 61 52 33 25 87 73 118 106 56 60 131 170 131 193 0
6 4 11 8 11 5 0 26 52 47 115 36 110 38 120 32 208 -4 51 -11 109 -17 129 -6
21 -10 39 -8 40 2 2 -7 17 -19 34 -24 34 -44 41 -108 36z m-535 -296 c0 -3 -4
-8 -10 -11 -5 -3 -10 -1 -10 4 0 6 5 11 10 11 6 0 10 -2 10 -4z m640 -110
c-29 -60 -105 -134 -177 -171 -32 -16 -61 -34 -65 -40 -4 -5 -8 -7 -8 -3 0 4
-19 0 -42 -8 -77 -28 -178 -24 -178 6 0 6 4 9 9 6 14 -9 115 29 203 76 97 52
198 134 241 195 l32 45 3 -30 c2 -16 -7 -51 -18 -76z m-675 52 c-9 -18 -19
-40 -24 -48 -12 -22 -31 -109 -34 -155 -3 -50 -22 -48 -23 2 -2 63 34 165 75
216 21 26 23 21 6 -15z m271 -622 c-14 -19 -36 -38 -48 -42 -13 -4 -25 -9 -28
-13 -14 -18 -214 -95 -271 -105 -80 -15 -119 -18 -119 -10 0 12 20 41 20 31 0
-5 7 -1 16 7 8 9 23 16 32 17 31 1 82 13 152 34 3 1 18 7 33 13 16 7 30 12 32
12 8 0 160 75 165 81 7 8 34 17 39 13 2 -2 -8 -19 -23 -38z m-46 -247 c-56
-53 -209 -159 -229 -159 -6 0 -11 -5 -11 -11 0 -5 -4 -7 -10 -4 -5 3 -10 2
-10 -3 0 -16 -106 -54 -141 -50 -31 3 -25 7 81 61 63 31 124 63 134 70 11 6
65 42 120 79 56 37 105 67 111 67 5 1 -15 -22 -45 -50z m-869 -176 c8 -63 8
-86 -2 -104 l-12 -23 -10 24 c-12 33 -14 260 -2 285 8 16 10 7 12 -40 1 -33 7
-97 14 -142z m-338 -490 c27 -95 36 -203 18 -203 -23 0 -69 185 -64 258 2 36
4 42 11 42 4 0 20 -44 35 -97z m547 -71 c0 -10 -81 -44 -88 -38 -3 3 61 37 86
45 1 1 2 -3 2 -7z"/>
</g>
</svg>
