<?xml version="1.0" standalone="no"?>
<!DOCTYPE svg PUBLIC "-//W3C//DTD SVG 20010904//EN"
 "http://www.w3.org/TR/2001/REC-SVG-20010904/DTD/svg10.dtd">
<svg version="1.0" xmlns="http://www.w3.org/2000/svg"
 width="480.000000pt" height="480.000000pt" viewBox="0 0 480.000000 480.000000"
 preserveAspectRatio="xMidYMid meet">
<metadata>
Created by potrace 1.14, written by Peter Selinger 2001-2017
</metadata>
<g transform="translate(0.000000,480.000000) scale(0.100000,-0.100000)"
fill="#000000" stroke="none">
<path d="M2802 4545 c-107 -49 -193 -121 -218 -181 -17 -40 -23 -40 -26 -1 -1
15 -5 27 -8 27 -10 -1 -124 -170 -140 -210 -6 -14 -15 -34 -20 -45 -5 -11 -11
-30 -15 -42 -6 -23 12 -112 26 -128 11 -12 12 -35 0 -35 -7 0 -44 114 -53 165
-3 13 -18 -9 -46 -70 -74 -155 -80 -193 -57 -360 6 -38 5 -39 -10 -20 -9 11
-18 31 -21 45 -3 14 -9 33 -15 42 -5 10 -9 25 -9 35 0 20 -9 12 -14 -13 -3
-11 -16 -50 -29 -89 -63 -174 -61 -269 9 -414 25 -52 57 -109 70 -127 13 -17
24 -36 24 -42 0 -7 3 -12 8 -12 4 0 13 -13 19 -28 7 -15 20 -36 28 -47 120
-153 177 -253 93 -163 -81 86 -111 123 -169 213 -33 50 -62 95 -67 100 -13 17
-72 154 -76 178 -3 12 -5 22 -6 22 -1 0 -4 16 -7 35 -8 60 -19 54 -51 -27 -47
-120 -60 -173 -67 -263 -4 -68 56 -209 148 -346 28 -42 57 -85 62 -93 6 -9 12
-18 15 -21 14 -14 70 -90 70 -94 0 -7 34 -48 68 -83 22 -24 30 -63 13 -63 -5
0 -16 10 -24 23 -8 12 -35 43 -59 68 -23 25 -63 70 -88 99 -25 29 -50 59 -57
65 -7 7 -9 15 -6 19 3 3 -2 8 -11 12 -9 3 -16 10 -16 14 0 4 -17 34 -38 66
-41 62 -99 199 -105 246 -1 15 -6 30 -9 34 -4 3 -4 12 -2 19 3 7 1 16 -5 20
-7 3 -11 -2 -11 -14 0 -12 -5 -21 -11 -21 -5 0 -8 -4 -5 -8 2 -4 -4 -27 -15
-51 -10 -24 -22 -57 -24 -74 -3 -16 -10 -39 -16 -49 -6 -11 -12 -51 -14 -89
-3 -61 2 -95 23 -149 3 -8 6 -17 7 -20 1 -3 7 -18 14 -35 7 -16 12 -32 12 -35
0 -3 10 -15 21 -28 12 -12 18 -22 14 -22 -18 0 158 -221 271 -340 51 -53 72
-87 36 -59 -10 8 -26 21 -36 29 -151 119 -289 274 -341 383 -30 62 -56 157
-56 207 0 43 -14 26 -30 -35 -6 -22 -15 -49 -20 -60 -21 -47 -40 -124 -46
-180 -3 -33 -7 -65 -9 -72 -2 -7 0 -15 5 -18 4 -3 7 -13 5 -23 -2 -17 13 -66
46 -138 18 -42 108 -166 141 -195 10 -9 18 -20 18 -25 0 -5 15 -25 33 -45 17
-20 55 -65 82 -99 28 -34 60 -73 73 -86 35 -37 21 -49 -20 -17 -28 23 -194
188 -233 233 -83 95 -175 250 -175 296 0 19 -22 13 -26 -7 -1 -7 -11 -50 -21
-94 -22 -92 -21 -193 1 -259 39 -113 142 -273 260 -401 112 -121 54 -92 -78
38 -46 45 -96 100 -112 122 -16 22 -31 42 -34 45 -13 13 -60 105 -89 175 -8
18 -10 18 -21 -10 -35 -90 -41 -211 -15 -290 20 -60 77 -179 88 -183 4 -2 7
-10 7 -18 0 -8 5 -14 10 -14 6 0 10 -7 10 -15 0 -8 5 -15 10 -15 6 0 10 -5 10
-11 0 -6 18 -33 41 -60 41 -49 42 -64 3 -31 -29 24 -115 128 -154 187 -19 28
-37 52 -40 55 -4 3 -12 14 -19 25 -16 28 -11 -122 7 -190 7 -27 15 -57 17 -66
2 -9 8 -25 13 -35 31 -61 72 -156 72 -165 0 -8 -5 -7 -15 1 -8 7 -15 9 -15 6
0 -4 -7 0 -16 9 -19 19 -32 12 -16 -8 7 -8 28 -47 49 -88 20 -41 43 -80 50
-87 7 -7 13 -18 13 -23 0 -5 36 -45 81 -89 l81 -80 -33 -98 c-17 -53 -41 -115
-52 -137 -11 -22 -18 -40 -16 -41 2 0 -7 -24 -20 -52 l-24 -51 27 -40 c25 -36
30 -39 52 -29 13 6 24 15 24 20 0 5 4 7 10 3 14 -9 36 31 65 120 15 44 30 89
35 100 4 11 16 47 25 80 40 143 44 152 78 166 18 8 34 14 37 14 3 1 23 9 45
19 131 57 214 89 245 93 19 3 37 7 39 9 9 8 -56 25 -81 21 -39 -5 -35 6 10 29
20 10 71 44 112 74 91 67 88 65 123 95 31 28 36 26 -71 29 -34 0 -62 -1 -62
-4 0 -3 -24 -6 -53 -6 -51 -1 -51 -1 -22 11 17 7 33 11 38 8 4 -2 7 1 7 6 0 6
6 11 13 11 16 0 111 47 155 77 49 33 102 82 147 137 l40 49 -65 -7 c-58 -5
-83 -8 -155 -21 -11 -2 -51 -10 -88 -19 -108 -25 -119 -16 -22 18 28 10 66 25
85 34 19 9 37 17 40 17 16 3 56 19 60 24 3 3 25 16 50 29 39 19 69 40 115 80
47 41 120 149 160 235 28 63 31 74 13 60 -13 -10 -114 -53 -133 -58 -5 -1 -17
-5 -25 -8 -23 -10 -201 -68 -219 -72 -9 -2 -41 -12 -71 -23 -30 -11 -59 -20
-65 -22 -5 -1 -14 -4 -20 -6 -80 -25 -145 -40 -145 -34 0 4 26 19 58 33 31 13
80 35 107 48 28 12 52 23 55 24 9 3 122 55 210 98 132 64 180 95 245 162 82
83 129 187 150 325 2 14 6 48 10 75 l7 50 -28 -37 c-49 -64 -186 -156 -298
-199 -27 -11 -70 -29 -95 -40 -77 -34 -148 -62 -161 -65 -3 0 -14 -4 -25 -9
-73 -29 -85 -33 -89 -26 -3 4 48 34 112 67 64 32 119 62 122 65 3 3 25 15 50
27 187 90 330 194 403 293 24 31 91 179 82 179 -2 0 3 23 10 50 7 28 11 50 9
50 -2 0 1 11 6 25 5 14 8 25 5 25 -2 0 -25 -15 -51 -32 -25 -18 -53 -37 -62
-43 -9 -5 -22 -16 -30 -22 -7 -7 -24 -16 -38 -19 -13 -3 -24 -10 -24 -15 0 -5
-7 -9 -15 -9 -8 0 -15 -4 -15 -10 0 -5 -6 -10 -13 -10 -7 0 -38 -13 -68 -29
-30 -16 -103 -50 -164 -76 -60 -26 -123 -53 -140 -60 -71 -31 -108 -45 -117
-45 -18 0 14 41 39 51 14 5 37 18 52 28 14 10 69 41 121 68 145 78 163 87 174
96 6 4 52 35 101 67 243 159 312 282 320 578 1 45 1 82 0 82 -1 0 -32 -29 -69
-64 -37 -36 -80 -71 -96 -78 -17 -7 -30 -16 -30 -19 0 -5 -132 -70 -244 -119
-119 -53 -171 -59 -83 -10 23 13 72 43 109 67 36 24 71 43 76 43 6 0 12 3 14
8 2 4 36 30 77 57 106 71 202 170 223 231 33 92 36 146 26 462 -2 47 -14 39
-29 -18 -7 -27 -16 -50 -20 -50 -3 0 -12 -13 -19 -30 -7 -16 -16 -30 -21 -30
-4 0 -10 -8 -13 -17 -7 -22 -84 -103 -97 -103 -6 0 -4 7 3 15 46 51 90 116
112 168 27 60 31 142 11 218 -7 27 -12 49 -10 49 10 0 -55 135 -65 138 -8 3
-10 0 -6 -7 4 -6 4 -16 1 -21 -4 -6 -20 15 -36 46 -35 69 -156 214 -178 214
-3 0 -30 -11 -59 -25z m-512 -3235 c0 -5 -5 -10 -11 -10 -5 0 -7 5 -4 10 3 6
8 10 11 10 2 0 4 -4 4 -10z"/>
</g>
</svg>
